<?xml version="1.0" encoding="utf-8"?>
<!-- Generator: Adobe Illustrator 19.0.0, SVG Export Plug-In . SVG Version: 6.00 Build 0)  -->
<svg version="1.1" id="Layer_1" xmlns="http://www.w3.org/2000/svg" xmlns:xlink="http://www.w3.org/1999/xlink" x="0px" y="0px"
	 viewBox="0 0 600 600" enable-background="new 0 0 600 600" xml:space="preserve">
<path fill-rule="evenodd" clip-rule="evenodd" fill="#08296C" d="M67.8,410.8l36.1-19.1l14.1,26.7l-6.1,3.2l-10.3-19.4l-8,4.2
	l9.6,18.1l-6.1,3.2l-9.6-18.1l-9.8,5.2L88.4,435l-6.1,3.2L67.8,410.8z M102.1,465.8l14.8-11c1.8-1.4,3.2-2.5,4-3.5
	c0.8-1,1.4-2,1.7-3.2c0.3-1.2,0.3-2.5,0-4c-0.4-1.5-1.1-3-2.1-4.4c-2.4-3.2-5.6-4.8-9.8-4.9l3.5-2.6l-4.3-5.8L86,444.1l4.7,6.3
	l10.8-8c2.7-2,4.6-3.2,5.8-3.6c1.2-0.4,2.5-0.4,3.7,0c1.2,0.4,2.3,1.2,3.1,2.3c0.6,0.9,1,1.7,1,2.7c0,0.9-0.2,1.8-0.8,2.6
	c-0.6,0.8-2.1,2.2-4.7,4.1l-12.1,9L102.1,465.8z M112.3,477.3l-5.2-5.8l22-19.8l4.8,5.4l-3.1,2.8c2.3-0.4,4-0.4,5.2-0.1
	c1.1,0.3,2.1,1,3,1.9c1.2,1.3,2,2.9,2.4,4.8l-6.7,2.8c-0.2-1.6-0.8-2.8-1.5-3.6c-0.7-0.8-1.6-1.3-2.5-1.5c-1-0.2-2.2,0.1-3.6,0.8
	c-1.5,0.7-4.1,2.8-7.8,6.1L112.3,477.3z M145.1,463l4.9-5.4l5.8,5.3l-4.9,5.4L145.1,463z M122.6,487.9l5.8,5.2l19.9-22l-5.8-5.2
	L122.6,487.9z M167.1,497.4l-7-3.4c0.7-1.4,0.9-2.7,0.6-3.8c-0.3-1.2-1-2.2-2.2-3c-1.6-1.1-3.2-1.5-5-1.1c-1.7,0.4-3.5,1.9-5.4,4.5
	c-2.1,2.8-3,5.2-2.9,7.1c0.1,1.9,1,3.4,2.6,4.5c1.2,0.9,2.4,1.2,3.7,1.1c1.3-0.1,2.7-0.9,4.2-2.4l5.5,5.6c-2.7,2.4-5.5,3.7-8.4,3.8
	c-2.9,0.1-5.9-0.9-9-3.2c-3.5-2.5-5.5-5.7-6-9.4c-0.5-3.7,0.7-7.6,3.6-11.5c2.9-4,6.2-6.3,9.8-7c3.7-0.7,7.3,0.3,10.9,2.8
	c2.9,2.1,4.8,4.4,5.6,6.9C168.3,491.4,168.2,494.2,167.1,497.4 M187.2,486.5l-6.7-4l-20.8,35.2l6.7,4l7.6-12.7
	c1.3-2.1,2.4-3.6,3.5-4.5c1.1-0.9,2.2-1.3,3.4-1.3c1.2,0,2.4,0.3,3.5,1c1,0.6,1.7,1.3,2.1,2.1c0.4,0.8,0.5,1.6,0.4,2.5
	c-0.2,0.9-1,2.6-2.6,5.3l-8,13.4l6.7,4l8.9-14.9c1.4-2.3,2.2-4,2.6-5.3c0.4-1.2,0.6-2.5,0.5-3.7c-0.1-1.3-0.6-2.6-1.5-3.9
	c-0.9-1.3-2.1-2.4-3.7-3.4c-3-1.8-6.4-2-10.1-0.8L187.2,486.5z M204.7,504.2l3.1-6.5l7.1,3.4l-3.1,6.5L204.7,504.2z M190.2,534.5
	l12.8-26.7l7.1,3.4l-12.8,26.7L190.2,534.5z M230.2,549.6l5.4-17.6c0.7-2.2,1.1-3.9,1.1-5.2c0.1-1.3-0.1-2.5-0.5-3.6
	c-0.4-1.1-1.2-2.2-2.4-3.2c-1.2-1-2.6-1.8-4.3-2.3c-3.8-1.2-7.4-0.5-10.8,1.9l1.3-4.2l-6.9-2.1l-8.7,28.3l7.5,2.3l4-12.8
	c1-3.2,1.8-5.3,2.6-6.3c0.7-1,1.7-1.8,3-2.2c1.3-0.4,2.5-0.4,3.8,0c1,0.3,1.8,0.8,2.4,1.6c0.6,0.7,0.9,1.6,0.9,2.6
	c0,1-0.4,3-1.3,6.1l-4.5,14.4L230.2,549.6z M236.7,553.4l8.6,2.8c-0.1,1.1,0.1,1.8,0.6,2.3c0.6,0.7,1.7,1.2,3.3,1.5
	c2,0.4,3.6,0.4,4.7,0c0.8-0.3,1.4-0.8,1.9-1.6c0.4-0.6,0.7-1.7,1.1-3.5l0.9-4.2c-3,2.7-6.2,3.7-9.7,3c-3.9-0.8-6.7-3.1-8.3-6.8
	c-1.3-3-1.5-6.4-0.7-10.3c1-4.9,2.9-8.3,5.8-10.4c2.9-2.1,6-2.8,9.5-2.1c3.6,0.7,6.2,2.9,7.9,6.5l0.8-4.1l7.2,1.4l-5.3,26
	c-0.7,3.4-1.5,5.9-2.4,7.5c-0.9,1.6-2,2.7-3.2,3.5c-1.2,0.8-2.7,1.2-4.5,1.4c-1.8,0.2-4,0-6.6-0.5c-4.9-1-8.2-2.5-10-4.7
	c-1.7-2.1-2.3-4.5-1.8-7.1C236.6,554.1,236.6,553.8,236.7,553.4 M247,537.9c-0.6,3.1-0.5,5.4,0.4,7.1c0.9,1.7,2.2,2.7,4,3
	c1.9,0.4,3.6,0,5.2-1.2c1.6-1.2,2.7-3.2,3.3-6.1c0.6-3,0.4-5.4-0.5-7.1c-0.9-1.7-2.4-2.7-4.2-3.1c-1.8-0.4-3.5,0-5,1.2
	C248.7,532.9,247.6,535,247,537.9 M297.8,559l0.2-17.2l-14.7-23.9l9.7,0.1l9.5,16.3l9.6-16.1l9.5,0.1l-15.3,23.5l-0.2,17.1
	L297.8,559z M316.9,543.6c0.5,3.4,1.5,6.2,3.1,8.3c1.6,2.2,3.7,3.7,6.3,4.6c2.6,0.9,5.3,1.1,7.9,0.8c4.3-0.6,7.7-2.5,10.2-5.9
	c2.5-3.3,3.4-7.2,2.8-11.6c-0.6-4.4-2.5-7.9-5.7-10.4c-3.2-2.5-7.1-3.4-11.5-2.8c-2.9,0.4-5.4,1.4-7.5,3c-2.2,1.6-3.7,3.7-4.6,6.3
	C316.9,538.4,316.6,541,316.9,543.6 M325,542.9c-0.4-2.9,0-5.2,1.2-7c1.2-1.7,2.8-2.7,4.8-3c2-0.3,3.8,0.3,5.4,1.6
	c1.6,1.4,2.6,3.5,3,6.4c0.4,3,0,5.3-1.1,7c-1.2,1.7-2.8,2.7-4.8,3c-2,0.3-3.8-0.3-5.4-1.6C326.4,547.9,325.4,545.8,325,542.9
	 M374.1,547.5l-1.3-4.3c-0.6,1.8-1.6,3.4-3,4.8c-1.4,1.4-3.1,2.4-4.9,2.9c-1.9,0.6-3.8,0.7-5.5,0.3c-1.8-0.4-3.2-1.3-4.3-2.6
	c-1.1-1.3-2.1-3.3-2.9-6l-5.3-18l7.5-2.2l3.9,13.1c1.2,4,2,6.4,2.6,7.2c0.5,0.8,1.3,1.4,2.1,1.7c0.9,0.3,1.9,0.3,3,0
	c1.3-0.4,2.3-1.1,3.1-2.1c0.8-1,1.2-2.1,1.3-3.2c0.1-1.2-0.5-3.8-1.7-7.8l-3.5-12l7.5-2.2l8.4,28.4L374.1,547.5z M395.5,539.8
	l-3.4-8.5c-1.9-4.7-2.9-7.8-3-9.5c-0.2-1.6,0-2.9,0.5-3.7c0.5-0.8,1.2-1.5,2.3-1.9c1.1-0.4,2.4-0.5,3.9-0.2l-0.3-7.2
	c-1.9-0.3-3.7-0.1-5.3,0.5c-1.2,0.5-2.1,1.2-2.8,2.1c-0.7,0.9-1.3,2.6-1.7,4.9l-1.5-3.9l-6.7,2.7l10.9,27.5L395.5,539.8z M423.4,527
	l-22.9-33.9l23.3-15.7l3.9,5.7l-16.4,11.1l5.4,8l14.2-9.6l3.9,5.7l-14.2,9.6l9.7,14.4L423.4,527z M467.3,494.8l5.6-4.6l-18.7-23
	l-6.1,4.9l7.9,9.7c2.7,3.3,4.2,5.5,4.6,6.6c0.4,1.1,0.4,2.3,0,3.5c-0.4,1.2-1.1,2.3-2.1,3.1c-0.9,0.7-1.8,1.1-2.8,1.2
	c-0.9,0.1-1.8-0.2-2.6-0.7c-0.8-0.5-2.5-2.4-5.2-5.7l-8.6-10.6l-6.1,4.9l11.9,14.6c1.8,2.2,3.4,3.6,5,4.4c1.5,0.8,3.2,1,5,0.7
	c1.8-0.3,3.4-1.1,5-2.4c1.5-1.2,2.7-2.8,3.4-4.6c0.8-1.8,1.1-3.7,0.9-5.6L467.3,494.8z M465.5,454.4l4.6,4.2l-3.6,4l8.9,8.1
	c1.8,1.6,2.9,2.6,3.3,2.7c0.4,0.2,0.8,0.2,1.2,0.2c0.4-0.1,0.8-0.3,1.2-0.7c0.5-0.5,1-1.5,1.6-2.8l5,3.6c-0.6,1.9-1.7,3.7-3.3,5.4
	c-0.9,1-2,1.8-3.1,2.3c-1.1,0.5-2.1,0.7-3,0.6c-0.9-0.1-1.9-0.5-3-1.2c-0.8-0.5-2.2-1.7-4.3-3.5l-9.6-8.7l-2.4,2.7l-4.6-4.2l2.4-2.7
	l-4.4-3.9l1.8-8.9l7.8,7L465.5,454.4z M503.1,454.7l-3.6-2.6c0.6,1.8,0.8,3.7,0.6,5.7c-0.3,2-1,3.7-2.1,5.3
	c-1.2,1.6-2.6,2.8-4.2,3.6c-1.6,0.8-3.3,1-5,0.6c-1.7-0.4-3.7-1.4-5.9-3l-15.2-11l4.6-6.3l11,8c3.4,2.5,5.5,3.8,6.5,4.1
	c0.9,0.3,1.8,0.3,2.7,0c0.9-0.3,1.7-0.9,2.4-1.9c0.8-1.1,1.2-2.3,1.2-3.6c0-1.3-0.3-2.4-0.9-3.4c-0.7-1-2.7-2.7-6.1-5.2l-10.1-7.4
	l4.6-6.3l24,17.4L503.1,454.7z M515.5,435.7l-7.8-4.7c-4.3-2.6-7-4.5-8.2-5.7c-1.1-1.2-1.8-2.3-1.9-3.2c-0.1-1,0.1-1.9,0.7-2.9
	c0.6-1,1.6-1.8,3-2.5l-4.6-5.6c-1.7,0.9-3,2.1-3.9,3.7c-0.6,1.1-1,2.2-1,3.4c0,1.2,0.6,2.8,1.6,4.9l-3.6-2.2l-3.7,6.2l25.4,15.3
	L515.5,435.7z M521.8,403.4l4.6-6.5c2.2,2.1,3.4,4.5,3.9,7.1c0.4,2.6-0.1,5.4-1.5,8.3c-2.2,4.6-5.4,7.4-9.5,8.1
	c-3.3,0.6-6.8,0-10.5-1.8c-4.4-2.1-7.4-4.9-8.8-8.4c-1.4-3.5-1.3-7,0.4-10.6c1.9-4,4.7-6.5,8.4-7.5c3.7-1,8.3-0.2,13.6,2.5
	l-8.4,17.7c2.1,0.9,4,1.2,5.7,0.6c1.7-0.5,2.9-1.6,3.7-3.2c0.5-1.1,0.7-2.2,0.4-3.2C523.7,405.5,523,404.4,521.8,403.4 M514.9,399.6
	c-2.1-0.9-3.9-1.2-5.4-0.7c-1.6,0.5-2.7,1.5-3.4,2.9c-0.7,1.5-0.8,3.1-0.1,4.6c0.6,1.5,1.9,2.8,3.9,3.7L514.9,399.6z"/>
<path fill="none" stroke="#08296C" stroke-width="4.623" stroke-miterlimit="22.926" d="M300.8,492.5c103,0,186.9-84,186.9-186.9
	c0-103-84-186.9-186.9-186.9c-103,0-186.9,84-186.9,186.9C113.9,408.5,197.9,492.5,300.8,492.5"/>
<path fill-rule="evenodd" clip-rule="evenodd" fill="#08296C" d="M300.8,478.5c95.1,0,172.7-77.6,172.7-172.7
	c0-95.1-77.6-172.7-172.7-172.7c-95.1,0-172.7,77.6-172.7,172.7C128.1,400.9,205.7,478.5,300.8,478.5"/>
<path fill-rule="evenodd" clip-rule="evenodd" fill="#FFFFFF" d="M148.2,262v-23.3c31.9-41,68.9-66.6,109.5-81.5v48.9
	c-10.3,2.2-20.2,5.2-29.8,8.7v222.9c-16-7.5-32-19-48-34V238.7C168.9,245.7,158.4,253.5,148.2,262"/>
<path fill-rule="evenodd" clip-rule="evenodd" fill="#FFFFFF" d="M269.8,152.9c27.5-6.6,56.2-3.7,86.2,8.4v41.5
	c-14.2-5-27.9-7.1-40.9-5.9v84.3c23.4,1.6,30.1,1.3,40.9-8.6v59.7c-13.6-7.1-20.3-7.6-40.9-5.9v85.7c17.4,1,31-2.3,40.9-10v43.8
	c-27.4,12.6-56.3,14.1-86.2,9.3V152.9z"/>
<path fill-rule="evenodd" clip-rule="evenodd" fill="#FFFFFF" d="M366.8,164.1c17.1,8.9,32.7,20.9,46.1,37.3v177.5
	c8.8-2,21.5-6.5,37.7-28.4v21c-24.7,30.5-53,53.1-83.9,69.9V164.1z"/>
<path fill-rule="evenodd" clip-rule="evenodd" fill="#08296C" d="M81.8,290.8l-43.5-3.3L37,303l-8.9-0.7l3.2-41.6l8.9,0.7L39,276.9
	l43.5,3.3L81.8,290.8z M38.2,234.2l18.7,5.3c-2.8-4.2-3.6-8.5-2.4-12.9c0.6-2.2,1.6-4.2,3-5.7c1.3-1.6,2.8-2.6,4.3-3.2
	c1.5-0.6,3.1-0.8,4.8-0.7c1.7,0.1,4.1,0.6,7.4,1.6l21.5,6.1l-2.8,9.7L73.5,229c-3.8-1.1-6.3-1.6-7.5-1.5c-1.1,0.1-2.2,0.5-3,1.3
	c-0.9,0.8-1.5,1.9-1.9,3.3c-0.5,1.6-0.5,3.2-0.1,4.7c0.4,1.5,1.3,2.8,2.7,3.8c1.4,1,3.6,2,6.7,2.9l18.3,5.2l-2.8,9.7l-50.5-14.4
	L38.2,234.2z M99.6,190.6l6.1-8.2c2.7,2.8,4.2,5.9,4.7,9.3c0.4,3.4-0.3,6.9-2.2,10.6c-3,5.9-7.2,9.3-12.5,10.1
	c-4.2,0.6-8.7-0.2-13.4-2.7c-5.6-2.9-9.3-6.6-10.9-11.2c-1.7-4.6-1.4-9.1,0.9-13.6c2.6-5,6.3-8.1,11.1-9.3c4.8-1.2,10.6,0,17.5,3.7
	l-11.5,22.4c2.7,1.3,5.1,1.6,7.3,1c2.2-0.6,3.8-2,4.9-4c0.7-1.4,0.9-2.8,0.7-4.1C101.9,193.3,101.1,191.9,99.6,190.6 M90.8,185.4
	c-2.6-1.3-5-1.6-7-1c-2,0.6-3.5,1.8-4.4,3.6c-1,1.9-1.1,3.9-0.3,5.9c0.8,2,2.4,3.6,4.9,4.9L90.8,185.4z M131.4,165.3l-38-36.3
	l26.8-28.2l6.4,6.1l-19.5,20.5l8.4,8.1l18.1-19l6.4,6.1l-18.1,19l10.3,9.8l20.2-21.2l6.4,6.1L131.4,165.3z M195.5,112.4l-12.8-19.9
	c-1.6-2.5-3-4.3-4.1-5.4c-1.2-1.1-2.5-2-4-2.5c-1.5-0.5-3.2-0.6-5.2-0.3c-2,0.3-3.9,1.1-5.8,2.3c-4.3,2.7-6.7,6.8-7.2,12.2l-3-4.7
	l-7.8,5l20.6,32.1l8.5-5.4l-9.3-14.5c-2.3-3.6-3.7-6.2-4.1-7.8c-0.4-1.6-0.3-3.2,0.4-4.7c0.7-1.6,1.7-2.8,3.2-3.8
	c1.2-0.7,2.3-1.1,3.5-1.1c1.2,0,2.3,0.4,3.3,1.2c1,0.8,2.6,2.9,4.8,6.4l10.5,16.3L195.5,112.4z M213.6,104.1l-9.2,4.1l-15.7-34.7
	l8.5-3.8l2.2,4.9c0.4-3,1-5.1,1.9-6.4c0.8-1.3,2-2.2,3.5-2.9c2.1-1,4.4-1.3,6.8-1l0.8,9.3c-2-0.3-3.7-0.2-5,0.5
	c-1.3,0.6-2.2,1.4-2.8,2.5c-0.6,1.1-0.7,2.7-0.4,4.8c0.3,2.1,1.8,6.1,4.5,12L213.6,104.1z M219.3,55.5l-2.6-9l9.7-2.8l2.6,9
	L219.3,55.5z M231.2,97.1l-10.4-36.6l9.7-2.8l10.4,36.6L231.2,97.1z M278.7,59.2l-9.4,3.5c-0.7-1.9-1.7-3.2-3-4
	c-1.3-0.8-2.9-1-4.8-0.7c-2.5,0.4-4.3,1.7-5.5,3.6c-1.2,2-1.4,5-0.7,9c0.8,4.5,2.1,7.5,3.9,9c1.8,1.6,4,2.1,6.5,1.7
	c1.9-0.3,3.3-1.2,4.3-2.4c1-1.3,1.5-3.3,1.5-6l10.1-0.1c-0.2,4.7-1.5,8.4-4,11.2c-2.5,2.8-6.1,4.6-10.9,5.5c-5.5,1-10.1,0-14-2.8
	c-3.9-2.9-6.4-7.4-7.5-13.5c-1.1-6.2-0.3-11.3,2.3-15.4c2.6-4,6.8-6.6,12.3-7.6c4.6-0.8,8.4-0.5,11.4,1
	C274.4,52.8,276.8,55.4,278.7,59.2 M302.5,33.4L302,52.9c3.4-3.8,7.3-5.6,11.9-5.5c2.3,0.1,4.4,0.5,6.3,1.4c1.9,0.9,3.2,2,4.1,3.4
	c0.9,1.4,1.5,2.9,1.8,4.5c0.3,1.6,0.4,4.2,0.3,7.6l-0.6,22.3l-10.1-0.3l0.5-20.1c0.1-4,0-6.5-0.4-7.6c-0.4-1.1-1-2-2-2.6
	c-1-0.7-2.2-1-3.7-1.1c-1.7,0-3.2,0.3-4.6,1.1c-1.4,0.8-2.4,2-3,3.6c-0.7,1.6-1,4-1.1,7.2L301.1,86l-10.1-0.3l1.3-52.5L302.5,33.4z
	 M346,50.5l8.9,2.5l-1.4,5c4.3-2.9,8.6-3.8,13-2.5c2.3,0.7,4.2,1.7,5.7,3.2c1.5,1.5,2.5,3.3,3,5.6c2.2-1.5,4.3-2.5,6.5-2.9
	c2.1-0.4,4.3-0.4,6.4,0.3c2.7,0.8,4.8,2,6.4,3.6c1.5,1.6,2.5,3.6,2.8,6c0.2,1.7-0.2,4.4-1.2,7.9l-6.7,23.4l-9.7-2.8l6-20.9
	c1-3.6,1.4-6.1,1-7.3c-0.5-1.6-1.7-2.7-3.5-3.2c-1.4-0.4-2.8-0.3-4.2,0.1c-1.4,0.5-2.6,1.5-3.6,2.9c-1,1.4-2,3.9-2.9,7.3l-5,17.6
	l-9.7-2.8l5.7-20c1-3.6,1.5-5.9,1.4-7c0-1.1-0.4-2.1-0.9-2.8c-0.6-0.7-1.5-1.2-2.7-1.6c-1.5-0.4-2.9-0.4-4.4,0.1
	c-1.4,0.5-2.6,1.4-3.6,2.8c-0.9,1.4-1.9,3.8-2.9,7.3l-5.1,17.8l-9.7-2.8L346,50.5z M423.1,108.9l7.9,6.5c-3,2.5-6.1,4-9.5,4.2
	c-3.4,0.3-6.9-0.6-10.5-2.7c-5.7-3.3-8.9-7.6-9.5-13c-0.4-4.3,0.7-8.7,3.3-13.3c3.2-5.5,7.1-8.9,11.7-10.4c4.6-1.5,9.1-0.9,13.5,1.6
	c4.9,2.8,7.8,6.7,8.8,11.6c1,4.9-0.5,10.6-4.5,17.3l-21.8-12.6c-1.4,2.6-1.9,5-1.4,7.3c0.5,2.2,1.8,3.9,3.8,5
	c1.4,0.8,2.7,1.1,4.1,0.9C420.3,111,421.7,110.2,423.1,108.9 M428.7,100.3c1.4-2.6,1.9-4.9,1.4-6.9c-0.5-2-1.6-3.6-3.4-4.6
	c-1.9-1.1-3.9-1.3-5.9-0.6c-2,0.7-3.7,2.2-5.1,4.6L428.7,100.3z M459,152.4l15.5-17.9c1.9-2.2,3.3-4,4-5.5c0.8-1.4,1.2-2.9,1.3-4.5
	c0.1-1.5-0.3-3.2-1.2-5.1c-0.9-1.8-2.2-3.5-3.8-4.9c-3.8-3.3-8.4-4.5-13.7-3.4l3.7-4.2l-7-6.1l-24.9,28.8l7.6,6.6l11.3-13
	c2.8-3.2,4.9-5.3,6.3-6.1c1.4-0.8,3-1.2,4.7-1c1.7,0.2,3.2,0.9,4.5,2c1,0.9,1.7,1.9,2,3.1c0.3,1.2,0.2,2.3-0.2,3.5
	c-0.5,1.2-2,3.3-4.7,6.4l-12.7,14.7L459,152.4z M505.5,148.6l-6,5.2l-4.5-5.2l-11.7,10.1c-2.4,2.1-3.7,3.3-4,3.7
	c-0.3,0.4-0.4,0.9-0.4,1.5c0.1,0.6,0.3,1.1,0.7,1.6c0.6,0.7,1.7,1.5,3.4,2.4l-5.4,5.8c-2.3-1.1-4.4-2.8-6.3-5
	c-1.2-1.4-2-2.8-2.5-4.3c-0.5-1.5-0.6-2.8-0.3-4c0.3-1.2,1-2.4,2.1-3.7c0.8-0.9,2.5-2.6,5.2-4.9l12.6-10.9l-3-3.5l6-5.2l3,3.5l5.7-5
	l11.1,3.7l-10.2,8.8L505.5,148.6z M490.9,195.2l16.9,32.9l7.9-4.1l-12-23.4l38.5-19.7l-4.9-9.5L490.9,195.2z M536.6,235.7l-0.9-9.2
	c3.9,0,7,0.9,9.4,2.8c2.4,1.9,4.3,5.3,5.6,10c1.2,4.3,1.6,7.7,1.2,10.1c-0.4,2.4-1.3,4.3-2.6,5.6c-1.3,1.3-4.1,2.6-8.3,3.8
	l-11.3,3.1c-3.2,0.9-5.5,1.7-7,2.5c-1.4,0.7-2.9,1.8-4.4,3.1l-2.7-9.6c0.6-0.4,1.4-1,2.6-1.7c0.5-0.3,0.9-0.5,1-0.7
	c-2.1-1.2-3.8-2.6-5.2-4.3c-1.4-1.7-2.3-3.5-2.9-5.7c-1.1-3.8-0.9-7,0.5-9.8c1.4-2.7,3.7-4.6,6.8-5.5c2.1-0.6,4-0.6,6-0.1
	c1.9,0.5,3.5,1.5,4.9,3.1c1.4,1.5,2.8,3.9,4.5,7c2.1,4.3,3.8,7.2,5.1,8.7l1-0.3c1.9-0.5,3.1-1.4,3.6-2.5c0.5-1.2,0.4-3-0.3-5.6
	c-0.5-1.7-1.2-3-2.2-3.7C539.9,236.2,538.5,235.8,536.6,235.7 M532.5,250.9c-0.8-1.1-1.8-2.9-3.2-5.5c-1.3-2.5-2.4-4.1-3.2-4.8
	c-1.3-1-2.6-1.3-4-0.9c-1.4,0.4-2.4,1.2-3.1,2.5c-0.7,1.3-0.8,2.7-0.4,4.3c0.5,1.7,1.5,3.2,3.1,4.5c1.2,0.9,2.5,1.4,3.9,1.4
	c0.9,0,2.5-0.3,4.8-1L532.5,250.9z M518.7,275l52.4-4l0.8,10l-18.9,1.4c3.8,2.8,5.8,6.4,6.1,10.6c0.4,4.6-1,8.6-4.1,11.8
	c-3.1,3.3-7.8,5.2-14.1,5.6c-6.5,0.5-11.6-0.7-15.4-3.5c-3.7-2.8-5.8-6.4-6.1-10.8c-0.2-2.2,0.2-4.3,1.2-6.5c1-2.2,2.4-4.1,4.4-5.8
	l-5.6,0.4L518.7,275z M539.1,283.3c-3.9,0.3-6.8,1.1-8.6,2.5c-2.6,1.9-3.7,4.4-3.5,7.2c0.2,2.2,1.3,4,3.3,5.5c2,1.4,5.1,2,9.2,1.7
	c4.4-0.3,7.4-1.4,9.2-3.1c1.8-1.7,2.6-3.8,2.4-6.3c-0.2-2.4-1.3-4.3-3.3-5.8C545.9,283.6,543,283,539.1,283.3"/>
</svg>
